<?xml version="1.0" encoding="UTF-8"?> <svg xmlns="http://www.w3.org/2000/svg" version="1.0" width="512.000000pt" height="512.000000pt" viewBox="0 0 512.000000 512.000000" preserveAspectRatio="xMidYMid meet"><g transform="translate(0.000000,512.000000) scale(0.100000,-0.100000)" fill="#ffffff" stroke="none"><path d="M235 4036 c-93 -29 -152 -77 -195 -158 -31 -57 -34 -71 -34 -150 l-1 -86 122 -244 c258 -512 519 -913 833 -1278 113 -132 391 -408 525 -521 200 -168 516 -394 642 -458 204 -102 462 -100 668 7 90 46 210 164 247 243 42 86 47 128 48 337 0 207 7 245 51 276 29 20 88 21 115 1 12 -8 164 -197 340 -420 175 -224 338 -424 362 -445 82 -73 98 -75 522 -75 433 0 442 1 534 86 62 56 96 125 103 209 11 114 5 123 -381 659 -194 270 -357 502 -360 516 -4 14 0 39 7 57 8 18 167 246 355 505 190 264 348 494 359 520 26 68 24 174 -5 236 -34 75 -75 121 -144 158 l-63 34 -405 0 -405 0 -50 -24 c-27 -14 -68 -43 -90 -66 -22 -23 -173 -259 -339 -531 -164 -269 -311 -501 -327 -516 -34 -33 -91 -38 -128 -12 -49 35 -51 54 -51 488 0 383 -1 408 -20 460 -27 72 -85 135 -156 171 l-59 30 -505 0 -505 0 -56 -26 c-118 -55 -184 -160 -184 -289 0 -57 6 -87 23 -125 27 -59 92 -129 145 -156 l37 -19 0 -219 c0 -190 -2 -220 -16 -225 -9 -3 -17 -6 -20 -6 -7 0 -151 186 -201 260 -103 154 -208 354 -294 560 -54 131 -119 199 -222 234 -41 14 -101 16 -415 15 -265 0 -378 -4 -407 -13z m793 -229 c15 -15 39 -53 52 -85 42 -102 148 -321 201 -415 67 -117 200 -310 282 -407 83 -99 130 -125 223 -125 61 0 77 4 120 30 55 34 107 111 118 172 3 21 6 174 6 339 l0 301 -72 5 c-40 3 -83 11 -95 18 -64 40 -61 146 5 181 20 11 115 14 477 14 483 0 490 -1 518 -50 9 -14 13 -148 17 -450 5 -414 6 -432 27 -477 99 -216 377 -260 530 -84 21 24 174 267 341 538 167 272 313 501 325 509 18 11 84 15 342 17 176 2 339 1 362 -3 68 -10 111 -69 94 -131 -3 -13 -159 -236 -346 -495 -187 -259 -350 -491 -363 -515 -13 -25 -25 -72 -29 -108 -11 -121 -9 -124 381 -665 195 -271 357 -504 361 -520 8 -36 -7 -73 -41 -100 -26 -21 -35 -21 -383 -21 -296 0 -360 2 -377 15 -12 8 -165 197 -340 421 -175 223 -338 424 -362 445 -115 101 -298 96 -416 -12 -91 -83 -99 -113 -106 -384 -6 -261 -9 -273 -85 -353 -86 -93 -216 -138 -374 -130 -125 7 -176 27 -334 132 -649 430 -1145 967 -1557 1682 -113 196 -308 582 -311 615 -6 62 25 112 74 122 12 3 176 4 364 3 l342 -1 29 -28z" fill="#ffffff"></path></g></svg> 