<?xml version="1.0" encoding="UTF-8"?> <svg xmlns="http://www.w3.org/2000/svg" id="Layer_1" data-name="Layer 1" viewBox="0 0 48 48"><defs><style> .cls-1 { stroke-width: 0px; } </style></defs><path class="cls-1" d="M13.059,21.45v-2.25c0-.55-.44-1-1-1-.55,0-1,.45-1,1v1.75c-.92-.93-1.83-1.79-2.72-2.52-.43-.35-1.06-.29-1.41.13-.35.43-.29,1.06.13,1.41.82.67,1.68,1.48,2.56,2.38h-1.7c-.55,0-1,.44-1,1,0,.55.45,1,1,1h3.57c.29.32.58.65.87.99v.01c-.36,3.32-.18,6.91.55,10.7C3.549,32.16,3.169,22.25.069,14.35c-.26-.65.25-1.37.95-1.35,5.63.17,10.35,1.3,14,3.28-.84,1.62-1.49,3.34-1.96,5.17Z"></path><path class="cls-1" d="M25.47,42.88c-.15.08-.31.12-.47.12-.36,0-.7-.19-.88-.53-.48-.9-1.02-1.86-1.6-2.85.72-.1,1.42-.22,2.09-.36.48.81.9,1.57,1.27,2.27.26.49.08,1.1-.41,1.35Z"></path><path class="cls-1" d="M47.927,4.37c-5.77,14.1-4.83,33.17-31.33,33.72,1.31-2.1,2.69-4.16,4.12-6.17l4.51-.67c.55-.08.92-.59.84-1.13-.08-.55-.6-.92-1.13-.84l-2.55.37c1.45-1.94,2.96-3.83,4.53-5.68l5.54-.31c.55-.04.98-.51.94-1.06-.03-.55-.49-.97-1.05-.94l-3.6.21c.65-.74,1.31-1.47,1.98-2.19,1.19-1.27,2.43-2.51,3.68-3.74l3.56.09h.03c.54,0,.99-.43,1-.98s-.42-1.01-.98-1.02l-1.56-.04c1.37-1.27,2.76-2.52,4.19-3.73.42-.35.47-.98.11-1.41-.35-.42-.98-.47-1.41-.11-1.46,1.23-2.89,2.52-4.29,3.82l.04-1.6c.01-.56-.42-1.01-.98-1.03-.56,0-1.01.43-1.02.98l-.09,3.61c-1.28,1.24-2.53,2.51-3.74,3.8-.68.72-1.34,1.46-1.99,2.19l-.21-3.56c-.03-.55-.5-.97-1.05-.94-.55.03-.98.51-.94,1.06l.32,5.61c-1.6,1.88-3.14,3.81-4.63,5.79l-.38-2.56c-.08-.55-.6-.93-1.13-.85-.55.09-.93.59-.85,1.14l.68,4.56c-1.39,1.95-2.72,3.93-3.99,5.96C10.517,15.91,23.107,3.51,46.977,3c.71-.01,1.22.71.95,1.37Z"></path><path class="cls-1" d="M16.6,38.09c-1.3,2.09-2.54,4.22-3.72,6.39-.18.33-.53.52-.88.52-.16,0-.32-.04-.48-.12-.48-.26-.66-.87-.4-1.36,1.25-2.31,2.58-4.58,3.98-6.8.04.2.08.4.13.6.1.45.53.79,1,.78.13,0,.25,0,.37-.01Z"></path></svg> 