<?xml version="1.0" encoding="UTF-8"?> <svg xmlns="http://www.w3.org/2000/svg" version="1.1" width="96" height="96"><path d="M0 0 C2.53974466 1.49753868 4.80538757 3.1444034 6.9609375 5.15625 C5.31001972 9.44863623 2.22339184 12.0356415 -1.0390625 15.15625 C-5.75653462 13.32167751 -5.75653462 13.32167751 -7.8203125 12.11328125 C-13.09849679 9.83659964 -20.20308064 10.07884402 -25.52734375 12.1015625 C-30.77664179 15.24520991 -34.69773479 19.4616648 -37.0390625 25.15625 C-37.70066699 31.0414527 -38.21995494 37.08121444 -34.9140625 42.21875 C-33.0390625 45.15625 -33.0390625 45.15625 -33.4140625 47.21875 C-35.79231176 50.05435489 -38.36366586 52.59717496 -41.0390625 55.15625 C-44.90433023 53.6975029 -46.00938209 51.90770854 -47.7265625 48.21875 C-48.14292969 47.34347656 -48.55929688 46.46820313 -48.98828125 45.56640625 C-52.47912959 37.55951619 -52.51876824 26.01952633 -49.6015625 17.71875 C-45.00128854 8.25994108 -37.74626611 1.92348606 -28.0390625 -1.84375 C-19.49969317 -4.69020644 -8.06439623 -3.85329513 0 0 Z " fill="#DFDFDF" transform="translate(54.0390625,26.84375)"></path><path d="M0 0 C0.81498562 1.6029053 1.62689927 3.20737278 2.4375 4.8125 C3.11619141 6.15248047 3.11619141 6.15248047 3.80859375 7.51953125 C7.41056829 15.01872415 6.98630038 24.89522909 5.421875 32.9921875 C2.35333733 41.72357195 -4.17724965 48.89171473 -12.375 53.0625 C-20.95721923 56.89044223 -31.07816725 57.50724573 -40.23828125 55.17578125 C-43.80552398 53.75416896 -46.80216238 52.13189174 -50 50 C-48.41571366 45.88085553 -45.5761383 42.54810837 -42 40 C-39.08488023 40.06625272 -37.57046723 40.71476639 -35 42 C-27.74735686 42.71910059 -21.58329372 42.90220732 -15.58203125 38.4296875 C-11.35214169 34.60712064 -8.22850494 30.66141045 -7.734375 24.90625 C-7.74210937 23.22015625 -7.74210937 23.22015625 -7.75 21.5 C-7.74484375 20.3759375 -7.7396875 19.251875 -7.734375 18.09375 C-7.80292808 15.06256512 -7.80292808 15.06256512 -9.078125 12.84375 C-10 11 -10 11 -9.83984375 8.984375 C-8.79996101 6.52734974 -7.47122842 5.10714116 -5.5625 3.25 C-4.94503906 2.63640625 -4.32757813 2.0228125 -3.69140625 1.390625 C-2 0 -2 0 0 0 Z " fill="#DFDFDF" transform="translate(66,37)"></path><path d="M0 0 C8.27171844 4.46952141 12.98552693 10.45658079 15.9375 19.3125 C16.71108666 29.88907821 16.10469949 38.09721048 9.5 46.6875 C7.08567784 49.16070807 5.03417909 50.80600747 1.9375 52.3125 C1.2775 52.3125 0.6175 52.3125 -0.0625 52.3125 C-0.42894578 50.75283408 -0.78010862 49.18957349 -1.125 47.625 C-1.42083984 46.31982422 -1.42083984 46.31982422 -1.72265625 44.98828125 C-2.21757182 41.09153224 -1.83820565 38.36745968 0.5 35.1875 C2.75696524 30.67356951 2.59130641 26.25963517 1.9375 21.3125 C-0.22506014 16.82719008 -2.52598699 14.36473208 -7.0625 12.3125 C-12.53208061 10.5721789 -16.98700689 12.00822613 -22.0625 14.3125 C-22.7225 14.9725 -23.3825 15.6325 -24.0625 16.3125 C-27.3203125 16.0703125 -27.3203125 16.0703125 -31.1875 15.4375 C-32.46882813 15.23382812 -33.75015625 15.03015625 -35.0703125 14.8203125 C-36.05773438 14.65273438 -37.04515625 14.48515625 -38.0625 14.3125 C-34.9831438 6.31417222 -30.64420439 2.94278203 -23.0625 -0.6875 C-16.16793845 -2.98568718 -6.72533898 -2.85108387 0 0 Z " fill="#37B6FF" transform="translate(77.0625,4.6875)"></path><path d="M0 0 C6.93 0 13.86 0 21 0 C21 2.31 21 4.62 21 7 C16.38 7 11.76 7 7 7 C7 8.98 7 10.96 7 13 C8.10408203 12.91298828 8.10408203 12.91298828 9.23046875 12.82421875 C17.27906672 12.45209071 17.27906672 12.45209071 21.125 15.375 C23.87296116 19.22214563 24.45740149 21.24302449 24 26 C20.84210526 31.57894737 20.84210526 31.57894737 18 33 C16.62451844 33.08308638 15.24514204 33.10736016 13.8671875 33.09765625 C13.06152344 33.09443359 12.25585938 33.09121094 11.42578125 33.08789062 C10.16314453 33.07532227 10.16314453 33.07532227 8.875 33.0625 C8.02550781 33.05798828 7.17601562 33.05347656 6.30078125 33.04882812 C4.20049091 33.03702874 2.1002367 33.01909306 0 33 C0 30.69 0 28.38 0 26 C4.95 25.67 9.9 25.34 15 25 C15 23.68 15 22.36 15 21 C10.05 20.67 5.1 20.34 0 20 C0 13.4 0 6.8 0 0 Z " fill="#E0E0E0" transform="translate(28,42)"></path></svg> 