<?xml version="1.0" encoding="UTF-8"?> <svg xmlns="http://www.w3.org/2000/svg" id="Layer_1" data-name="Layer 1" viewBox="0 0 48 48"><defs><style> .cls-1 { stroke-width: 0px; } </style></defs><path class="cls-1" d="M46,40h-6v-7h-2v7h-13v-7h-2v7h-13v-7h-2v7H2c-.552,0-1,.448-1,1s.448,1,1,1h44c.552,0,1-.448,1-1s-.448-1-1-1Z"></path><path class="cls-1" d="M35,26.5c0,3.59-2.91,6.5-6.5,6.5h-3.5v-4.59l2.71-2.7c.39-.39.39-1.03,0-1.42-.39-.39-1.03-.39-1.42,0l-1.29,1.3v-2.59c0-.55-.45-1-1-1s-1,.45-1,1v4.59l-1.29-1.3c-.39-.39-1.03-.39-1.42,0-.39.39-.39,1.03,0,1.42l2.71,2.7v2.59h-3.5c-3.59,0-6.5-2.91-6.5-6.5,0-2.38,1.28-4.46,3.19-5.59-.74-.94-1.19-2.12-1.19-3.41,0-2.57,1.77-4.73,4.15-5.33-.09-.37-.15-.76-.15-1.17,0-2.76,2.24-5,5-5s5,2.24,5,5c0,.41-.06.8-.15,1.17,2.38.6,4.15,2.76,4.15,5.33,0,1.29-.45,2.47-1.19,3.41,1.91,1.13,3.19,3.21,3.19,5.59Z"></path><path class="cls-1" d="M36.62,29.03l1.38,1.38v2.59h-2.5c-.46,0-.91-.06-1.34-.17,1.13-1,1.99-2.31,2.46-3.8Z"></path><path class="cls-1" d="M46.41,23.64c.98.99,1.59,2.35,1.59,3.86,0,3.04-2.46,5.5-5.5,5.5h-2.5v-4.59l2.71-2.7c.39-.39.39-1.03,0-1.42-.39-.39-1.03-.39-1.42,0l-1.29,1.3v-2.59c0-.55-.45-1-1-1s-1,.45-1,1v4.59l-1-1.01v-.08c0-2.31-.96-4.51-2.58-6.1.38-.91.58-1.89.58-2.9,0-1.34-.36-2.62-.99-3.71.11-2.66,2.3-4.79,4.99-4.79,2.76,0,5,2.24,5,5,0,.37-.05.74-.13,1.09,2.35.41,4.13,2.45,4.13,4.91,0,1.44-.62,2.72-1.59,3.64Z"></path><path class="cls-1" d="M13.84,32.83c-.43.11-.88.17-1.34.17h-2.5v-4.59l1.04-1.04c.22,2.16,1.26,4.09,2.8,5.46Z"></path><path class="cls-1" d="M10,23c0-.55-.45-1-1-1s-1,.45-1,1v4.59l-1.29-1.3c-.39-.39-1.03-.39-1.42,0-.39.39-.39,1.03,0,1.42l2.71,2.7v2.59h-2.5c-3.04,0-5.5-2.46-5.5-5.5,0-1.51.61-2.87,1.59-3.86-.97-.92-1.59-2.2-1.59-3.64,0-2.46,1.78-4.5,4.13-4.91-.08-.35-.13-.72-.13-1.09,0-2.76,2.24-5,5-5,2.69,0,4.88,2.13,4.99,4.79-.63,1.09-.99,2.37-.99,3.71,0,1.01.2,1.99.58,2.9-1.09,1.07-1.88,2.41-2.28,3.88,0,.01-.01.01-.01.01l-1.29,1.3v-2.59Z"></path></svg> 