<?xml version="1.0" encoding="UTF-8"?> <svg xmlns="http://www.w3.org/2000/svg" id="Layer_1" data-name="Layer 1" viewBox="0 0 48 48"><defs><style> .cls-1 { stroke-width: 0px; } </style></defs><path class="cls-1" d="M36.057,22.524c1.203-1.33,1.943-3.089,1.943-5.024,0-3.859-2.915-7.033-6.662-7.45.105-.5.162-1.018.162-1.55,0-4.142-3.358-7.5-7.5-7.5s-7.5,3.358-7.5,7.5c0,.531.057,1.049.162,1.55-3.747.417-6.662,3.592-6.662,7.45,0,1.935.739,3.693,1.943,5.024-2.318.993-3.943,3.294-3.943,5.976,0,3.59,2.91,6.5,6.5,6.5h5.96l.026-.688-4.063-4.571c-1.053-1.185-1-2.992.122-4.114l.081-.081c.566-.567,1.32-.879,2.121-.879.735,0,1.443.269,1.993.758l.085.075.139-3.615c.062-1.618,1.379-2.885,2.998-2.885,1.694,0,3.011,1.267,3.073,2.885l.027.713.197-.175c.549-.488,1.257-.757,1.993-.757.801,0,1.555.312,2.121.879l.081.081c1.122,1.122,1.175,2.929.121,4.114l-4.173,4.696.137,3.564h5.96c3.59,0,6.5-2.91,6.5-6.5,0-2.682-1.625-4.983-3.943-5.976Z"></path><path class="cls-1" d="M30.04,24.04l-.081-.081c-.374-.374-.976-.392-1.371-.04l-3.361,2.987-.19-4.945c-.021-.537-.462-.962-.999-.962h-.075c-.537,0-.979.425-.999.962l-.302,7.845-3.249-2.888c-.396-.352-.997-.334-1.371.04l-.081.081c-.374.374-.392.976-.04,1.371l4.597,5.172-.476,12.377c-.022.567.432,1.038.999,1.038h1.922c.567,0,1.021-.471.999-1.038l-.587-15.253,4.707-5.297c.352-.396.334-.997-.04-1.371Z"></path></svg> 