<?xml version="1.0" encoding="UTF-8" standalone="no"?> <svg xmlns="http://www.w3.org/2000/svg" width="600.000000pt" height="600.000000pt" viewBox="0 0 600.000000 600.000000" preserveAspectRatio="xMidYMid meet"> <metadata> Created by potrace 1.14, written by Peter Selinger 2001-2017 </metadata> <g transform="translate(0.000000,600.000000) scale(0.100000,-0.100000)" fill="#000000" stroke="none"> <path d="M1191 4918 c-11 -11 -18 -25 -15 -30 3 -4 0 -8 -6 -8 -6 0 -8 -5 -5 -10 4 -6 -3 -9 -17 -7 -12 2 -29 -3 -37 -11 -10 -10 -16 -11 -19 -3 -2 6 -8 9 -13 5 -5 -3 -9 1 -9 8 -1 15 -23 -20 -26 -41 -6 -34 -30 -29 -74 17 -25 26 -51 48 -58 50 -9 1 -12 -47 -12 -208 0 -197 -1 -211 -20 -230 -11 -11 -18 -20 -15 -20 2 0 -7 -11 -21 -25 -14 -14 -30 -25 -36 -25 -6 0 -9 -3 -5 -6 3 -3 -3 -23 -14 -43 -11 -21 -26 -68 -33 -105 -15 -71 -18 -77 -77 -148 -20 -23 -47 -63 -60 -88 -13 -25 -26 -47 -29 -50 -3 -3 -21 -39 -41 -80 -104 -213 -123 -250 -129 -250 -4 0 -7 -6 -7 -12 -1 -7 -5 -33 -10 -58 -8 -37 -6 -50 8 -74 10 -16 21 -32 26 -35 5 -3 19 -19 31 -35 12 -16 22 -26 22 -22 0 4 11 -4 24 -18 13 -15 31 -26 40 -26 10 0 14 -4 11 -10 -3 -5 -1 -10 6 -10 7 0 21 -8 32 -17 15 -13 18 -14 12 -3 -8 13 -6 13 8 2 9 -8 21 -11 27 -7 5 3 10 1 10 -5 0 -6 4 -9 8 -6 5 3 24 8 43 11 19 3 40 13 47 23 7 9 16 17 20 17 4 0 6 3 5 8 -2 4 3 7 10 7 8 0 38 23 67 52 30 29 50 46 45 38 -4 -8 3 -5 17 8 13 12 29 22 35 22 6 0 13 7 17 15 3 9 12 12 22 8 13 -5 15 -3 9 7 -6 9 -4 11 5 5 7 -4 15 -4 19 1 8 11 96 55 119 59 9 2 19 4 22 5 3 1 8 2 13 1 4 0 7 4 7 9 0 5 3 9 8 9 4 -1 9 0 12 1 3 1 14 3 25 5 28 5 60 13 60 15 0 1 14 3 30 5 31 2 79 -21 70 -35 -3 -4 3 -14 13 -21 9 -7 14 -9 9 -4 -4 4 0 19 9 33 9 13 11 21 5 18 -6 -4 -4 6 4 21 8 15 26 62 41 103 37 106 37 105 75 102 19 -2 44 -3 57 -4 12 0 22 -4 22 -9 0 -5 14 -7 30 -4 17 3 30 2 30 -3 0 -4 13 -7 29 -6 17 1 32 -4 35 -11 6 -16 -39 -182 -54 -200 -7 -8 -7 -16 -2 -19 12 -7 35 18 25 27 -3 4 1 7 10 7 9 0 17 6 17 13 0 8 15 22 34 32 19 11 33 22 30 26 -2 4 7 10 21 13 14 4 25 11 25 17 0 6 5 7 10 4 6 -3 10 -2 10 2 0 5 10 9 22 10 11 1 24 7 28 14 4 6 13 8 19 5 6 -4 11 -3 11 2 0 5 11 8 25 7 14 -2 25 1 25 5 0 5 21 6 48 3 26 -3 55 -5 65 -6 9 -1 17 -5 17 -9 0 -4 6 -5 14 -2 8 3 17 0 21 -5 3 -6 11 -9 16 -5 6 3 18 -1 27 -9 9 -7 25 -17 35 -20 17 -7 24 -27 8 -27 -5 0 -11 -7 -15 -15 -5 -13 -2 -14 22 -1 15 7 33 11 41 8 8 -3 11 0 7 6 -4 7 4 10 24 7 16 -2 32 0 34 4 3 4 38 6 78 4 40 -2 83 -4 96 -4 12 -1 22 -5 22 -11 0 -5 9 -7 19 -3 11 3 26 -1 35 -10 9 -9 20 -13 26 -10 5 3 10 1 10 -5 0 -6 4 -9 9 -5 5 3 17 -2 25 -11 9 -8 16 -13 16 -9 0 3 14 -9 31 -27 18 -18 28 -26 24 -18 -5 8 1 6 12 -5 12 -11 20 -22 20 -25 -1 -3 7 -17 17 -32 10 -15 19 -33 20 -40 1 -7 5 -19 10 -27 18 -28 19 -145 2 -211 -20 -78 -61 -170 -75 -170 -6 0 -11 4 -11 9 0 4 -13 7 -30 5 -16 -2 -30 0 -30 4 0 4 -10 9 -22 10 -13 1 -36 3 -53 4 -16 2 -34 6 -40 9 -5 3 -20 4 -32 3 -13 0 -23 2 -23 6 0 4 -11 6 -25 5 -14 -2 -27 1 -30 5 -3 5 -17 7 -30 4 -14 -2 -25 0 -25 5 0 5 -13 7 -29 5 -16 -3 -32 -1 -35 5 -3 5 -15 7 -25 4 -10 -3 -21 0 -25 5 -3 5 -19 8 -36 6 -17 -2 -29 0 -25 5 3 5 -3 8 -12 7 -14 -2 -17 -11 -14 -47 1 -24 8 -50 14 -58 10 -12 9 -13 -3 -6 -8 4 -4 -4 9 -18 13 -15 28 -24 33 -21 5 3 7 0 6 -8 -2 -8 4 -12 16 -10 12 2 16 -1 10 -9 -5 -9 -2 -10 9 -6 10 4 17 2 17 -4 0 -6 7 -8 16 -5 9 4 22 2 28 -3 12 -10 91 -9 101 1 4 4 18 4 31 2 13 -2 24 0 24 6 0 7 8 9 20 5 12 -4 20 -2 20 5 0 6 5 8 10 5 6 -3 17 1 26 10 9 9 20 13 24 8 9 -10 38 -99 43 -130 2 -12 6 -26 10 -29 4 -4 7 -18 7 -31 0 -22 -11 -32 -42 -37 -7 -1 -18 -5 -24 -8 -15 -10 -73 -21 -119 -22 -22 -1 -45 -4 -50 -7 -6 -3 -30 -4 -55 -2 -25 2 -62 4 -82 4 -21 1 -38 4 -38 8 0 4 -12 7 -27 8 -35 1 -59 7 -106 27 -20 8 -37 12 -37 9 0 -3 -9 5 -21 18 -11 13 -17 17 -13 9 4 -8 -8 -1 -26 15 -57 52 -80 76 -80 82 0 4 -6 14 -13 22 -8 9 -22 43 -31 77 -17 56 -17 87 -6 204 4 33 21 91 42 136 12 27 21 52 20 57 -1 4 3 7 8 7 6 0 10 7 10 15 0 8 7 15 16 15 15 0 15 2 2 22 -15 22 -83 35 -93 17 -3 -4 -12 -6 -20 -2 -8 3 -15 0 -15 -7 0 -7 -7 -10 -15 -6 -9 3 -18 -1 -22 -10 -3 -8 -12 -13 -19 -10 -8 3 -14 2 -14 -3 0 -4 -15 -16 -34 -26 -19 -11 -33 -23 -30 -27 3 -4 0 -8 -6 -8 -10 0 -39 -27 -111 -106 -10 -12 -19 -29 -19 -38 0 -11 -5 -14 -12 -10 -6 4 -8 3 -5 -3 6 -10 -2 -37 -37 -118 -73 -169 -78 -188 -73 -300 3 -58 8 -109 11 -112 3 -4 6 -16 6 -27 0 -12 8 -32 17 -45 12 -18 13 -22 2 -17 -8 4 -6 1 5 -8 10 -8 15 -19 11 -25 -3 -6 -1 -11 4 -11 6 0 11 -10 11 -22 0 -33 -11 -68 -21 -68 -4 0 -25 -11 -45 -25 -20 -14 -39 -23 -42 -21 -2 3 -12 -3 -22 -12 -10 -9 -40 -28 -67 -42 -26 -14 -50 -27 -53 -30 -16 -17 -62 -40 -69 -35 -5 3 -11 1 -13 -4 -1 -5 -12 -11 -23 -13 -11 -1 -26 -9 -33 -16 -8 -7 -17 -10 -22 -7 -5 3 -10 1 -12 -4 -1 -5 -9 -11 -17 -13 -46 -10 -126 -96 -145 -155 -18 -55 -17 -79 11 -188 9 -33 17 -67 18 -75 1 -8 5 -22 8 -30 7 -18 17 -73 22 -115 1 -16 5 -41 9 -55 3 -14 8 -62 10 -107 2 -45 7 -86 10 -92 3 -5 7 -21 8 -35 1 -14 6 -26 10 -26 4 0 8 -6 8 -13 0 -14 40 -38 75 -44 11 -2 22 -8 23 -13 2 -6 7 -8 11 -5 9 5 61 -49 61 -63 0 -4 14 -19 30 -34 17 -14 30 -25 30 -23 0 2 12 -7 27 -21 15 -14 53 -38 83 -52 30 -15 58 -31 62 -37 5 -7 8 -7 8 0 0 6 4 4 8 -3 10 -14 82 -23 82 -10 0 5 3 7 8 5 4 -2 15 4 25 15 9 10 14 18 11 18 -4 0 -1 7 7 16 12 14 16 119 6 154 -15 53 -65 132 -78 124 -5 -3 -9 -1 -9 5 0 13 -68 45 -92 44 -10 -1 -18 2 -18 5 0 4 -10 8 -22 9 -11 1 -24 6 -27 10 -3 4 -14 9 -25 11 -16 3 -69 56 -72 71 0 3 -5 17 -11 31 -6 14 -14 48 -18 75 -5 28 -10 57 -11 65 -7 33 -19 178 -18 233 0 83 3 84 189 92 191 8 220 10 230 16 6 3 26 5 45 4 19 -1 40 1 45 4 6 3 30 6 55 8 25 1 70 4 100 8 30 3 61 6 68 7 6 1 12 5 12 10 0 5 5 6 10 3 6 -3 10 -2 10 4 0 6 7 7 17 4 12 -5 14 -3 8 7 -6 10 -4 12 7 7 9 -3 20 -1 26 5 6 6 39 11 74 11 132 -1 155 -11 132 -55 -7 -14 -17 -28 -22 -30 -4 -1 -34 -39 -67 -83 -33 -44 -62 -82 -65 -85 -4 -3 -36 -46 -72 -97 -36 -51 -68 -89 -72 -85 -4 3 -4 -1 0 -11 3 -9 2 -17 -3 -17 -17 0 -53 -78 -57 -123 -2 -26 2 -56 9 -71 8 -14 12 -26 10 -26 -2 0 8 -13 23 -28 23 -25 46 -39 75 -47 4 -2 10 -4 15 -5 4 -1 10 -2 15 -1 4 0 7 -4 7 -10 0 -5 5 -7 10 -4 6 3 10 1 10 -5 0 -6 5 -8 10 -5 6 3 13 0 16 -9 3 -8 12 -12 20 -9 8 3 14 -1 14 -11 0 -15 12 -21 33 -17 5 1 6 -3 2 -9 -3 -5 -2 -10 4 -10 6 0 20 -10 32 -22 12 -13 18 -16 14 -8 -4 8 2 5 14 -8 12 -12 26 -20 32 -17 5 4 9 2 9 -3 0 -16 89 -4 128 17 11 6 22 7 26 4 3 -3 6 0 6 7 0 7 3 10 6 7 4 -3 16 -1 28 5 21 12 41 18 64 20 6 1 12 5 12 10 0 5 4 7 9 3 5 -3 12 -1 16 5 4 6 11 8 16 5 5 -4 9 -1 9 4 0 6 9 11 19 11 11 0 23 5 26 10 4 6 10 8 15 5 4 -3 11 2 14 11 4 9 13 14 21 10 8 -3 15 -1 15 5 0 6 5 7 10 4 6 -3 10 -1 10 5 0 6 5 8 10 5 6 -3 10 -1 10 6 0 7 3 9 6 6 13 -13 44 37 44 69 0 41 -45 94 -81 94 -5 0 -7 5 -3 12 4 6 3 9 -2 6 -5 -3 -20 -1 -34 4 -14 6 -36 12 -50 13 -14 1 -40 5 -57 9 -22 4 -33 2 -33 -5 0 -6 -6 -9 -14 -6 -7 3 -19 0 -26 -6 -10 -9 -11 -9 -6 0 4 8 0 8 -18 0 -13 -7 -22 -15 -20 -19 3 -5 0 -8 -7 -8 -7 0 -21 -8 -32 -18 -15 -12 -19 -13 -13 -2 7 13 6 13 -6 0 -21 -24 -61 -39 -93 -35 -16 1 -31 4 -32 5 -2 1 -6 3 -10 5 -52 14 -63 20 -69 38 -5 16 2 29 30 54 19 18 32 33 28 33 -4 0 7 9 23 19 17 10 40 28 52 40 12 11 25 21 28 21 3 0 14 8 25 17 11 10 29 26 40 36 11 9 22 17 25 17 3 0 4 2 3 5 -2 3 11 14 27 24 17 11 48 35 69 55 22 20 44 36 48 36 5 0 6 5 3 10 -3 6 -1 10 5 10 15 0 41 26 33 34 -4 3 -2 6 4 6 6 0 29 17 51 38 23 20 56 50 74 66 18 16 26 25 18 21 -8 -5 -4 3 10 17 14 13 28 23 32 21 4 -2 10 3 15 11 8 15 51 27 108 31 17 1 32 3 35 4 4 2 51 8 120 14 14 1 30 5 35 8 6 4 25 5 43 4 17 -1 32 1 32 4 0 4 17 7 38 9 107 6 122 7 122 12 0 3 24 6 54 6 54 1 54 1 75 -40 45 -90 64 -166 57 -229 -3 -33 -13 -68 -21 -77 -8 -9 -15 -22 -15 -30 0 -20 -60 -120 -72 -120 -6 0 -8 -3 -5 -7 4 -3 -8 -21 -27 -39 -19 -18 -32 -35 -29 -37 2 -3 -9 -11 -26 -18 -16 -7 -27 -17 -25 -21 3 -4 1 -8 -5 -8 -5 0 -23 -11 -39 -25 -16 -13 -32 -22 -36 -18 -3 3 -6 1 -6 -5 0 -7 -7 -12 -16 -12 -8 0 -12 -5 -9 -10 3 -5 1 -10 -5 -10 -7 0 -23 -9 -37 -20 -14 -11 -22 -20 -18 -20 4 0 -4 -9 -18 -20 -14 -11 -29 -29 -32 -40 -4 -11 -13 -20 -21 -20 -8 0 -12 -4 -9 -10 3 -5 -3 -20 -15 -32 -11 -13 -27 -34 -34 -48 -7 -14 -24 -45 -38 -70 -14 -25 -29 -60 -33 -77 -7 -37 2 -76 16 -68 5 4 9 1 9 -5 0 -7 6 -10 14 -7 8 3 17 3 21 -1 10 -11 119 -10 133 1 6 5 12 7 12 3 0 -4 15 1 33 11 17 9 35 17 39 18 8 0 53 47 53 55 0 3 10 20 23 37 13 18 21 33 18 33 -4 0 0 15 7 33 8 17 12 37 10 43 -2 6 3 16 11 23 12 10 19 8 34 -7 11 -11 23 -18 26 -14 3 3 6 -1 6 -8 0 -7 3 -10 7 -7 3 4 12 2 19 -4 17 -14 124 -20 124 -7 0 5 4 7 9 3 5 -3 12 -1 16 5 4 6 11 8 16 5 5 -4 12 1 15 9 3 9 9 14 13 12 3 -2 15 2 26 10 10 8 16 14 12 14 -6 0 13 26 41 55 6 8 12 17 12 21 0 13 62 139 72 145 5 3 9 9 8 13 -4 13 22 66 32 66 5 0 7 4 3 9 -3 5 0 15 7 23 7 7 14 19 16 26 3 18 59 93 69 93 4 -1 8 4 8 11 0 6 7 12 16 13 15 3 41 21 74 52 7 7 15 9 19 6 3 -4 6 -1 6 6 0 7 4 10 9 7 5 -3 12 1 15 10 3 8 10 13 15 10 5 -3 11 1 15 9 3 8 12 15 21 15 8 0 15 4 15 8 0 5 12 15 28 23 15 8 29 16 32 19 13 15 110 81 110 76 0 -3 8 2 18 12 10 9 33 29 51 43 33 27 69 113 51 124 -4 3 -11 27 -15 54 -6 46 -38 91 -65 91 -11 0 -92 83 -88 90 1 3 -5 16 -15 30 -12 17 -17 44 -17 94 0 58 6 83 41 165 23 53 46 99 53 103 6 4 8 8 3 8 -4 0 0 15 10 33 9 17 16 38 15 45 -2 6 1 12 7 12 5 0 12 13 16 30 4 16 11 32 16 35 15 10 10 31 -8 32 -10 1 -31 5 -48 8 -16 4 -39 8 -50 9 -11 0 -24 4 -30 8 -6 4 -10 -19 -11 -61 -1 -70 -34 -182 -71 -240 -1 -2 -10 0 -20 4 -18 8 -62 15 -95 16 -10 0 -20 4 -23 8 -2 5 -17 7 -32 5 -15 -1 -33 2 -40 7 -7 6 -17 8 -23 4 -5 -3 -16 -3 -22 2 -12 7 -37 11 -85 14 -13 1 -23 4 -23 8 0 4 -15 7 -32 8 -37 2 -83 9 -83 13 0 1 -13 3 -30 5 -16 1 -30 3 -30 4 0 2 -7 4 -15 6 -12 2 -14 -7 -11 -44 2 -25 8 -51 13 -58 5 -7 7 -16 4 -21 -3 -5 6 -14 19 -20 14 -7 25 -16 25 -22 0 -6 5 -8 10 -5 6 3 10 1 10 -5 0 -7 7 -10 15 -7 8 4 17 2 20 -3 3 -5 14 -7 25 -5 11 2 20 1 20 -3 0 -4 23 -7 50 -8 28 0 50 3 50 8 0 5 11 6 25 4 14 -3 25 -1 25 4 0 5 9 7 20 5 11 -2 20 1 20 6 0 6 6 9 13 6 6 -2 17 3 24 12 17 24 28 7 57 -90 31 -103 32 -119 5 -126 -16 -5 -19 -11 -14 -32 9 -35 37 -94 48 -102 5 -4 6 -12 2 -19 -6 -9 -4 -11 5 -5 10 6 12 3 8 -13 -4 -12 -2 -22 3 -22 16 0 9 -83 -11 -130 -10 -25 -19 -42 -19 -38 -1 4 -14 -5 -29 -20 -15 -15 -26 -30 -24 -35 2 -4 -1 -7 -6 -7 -5 0 -21 -11 -36 -25 -14 -13 -26 -22 -26 -19 0 3 -7 -2 -16 -11 -11 -11 -20 -13 -28 -5 -7 5 -16 7 -20 3 -4 -4 -9 3 -13 15 -3 12 -9 22 -13 22 -19 0 -51 115 -51 179 0 72 9 143 20 151 3 3 7 10 8 15 1 6 5 23 9 39 6 25 5 27 -12 18 -11 -5 -37 -8 -59 -6 -22 3 -56 6 -75 8 -19 2 -37 5 -40 6 -3 1 -15 1 -27 0 -13 -1 -23 2 -23 7 0 5 -15 10 -32 11 -18 2 -37 7 -42 12 -6 6 -18 10 -28 10 -10 0 -27 9 -37 19 -11 11 -22 17 -25 14 -7 -7 -95 87 -102 110 -8 26 -22 20 -16 -8 2 -13 1 -36 -2 -51 -5 -20 -12 -25 -26 -21 -11 3 -22 2 -24 -2 -4 -6 -203 -7 -216 -1 -3 1 -15 1 -27 0 -13 -1 -23 2 -23 7 0 5 -11 10 -25 11 -42 3 -152 83 -140 102 3 4 -1 10 -9 13 -33 13 -64 205 -36 222 6 4 8 10 5 15 -9 14 38 140 49 133 6 -3 8 -3 4 1 -6 7 30 106 55 151 12 22 14 27 16 51 0 8 5 13 9 10 5 -3 9 0 10 7 2 24 8 43 27 77 10 19 19 40 20 45 0 6 10 30 21 55 11 25 24 58 28 73 3 15 10 26 15 23 4 -3 8 0 8 7 0 7 3 22 7 33 7 23 -9 33 -64 39 -14 2 -36 6 -50 9 -13 3 -42 8 -65 12 -22 3 -42 7 -44 10 -2 2 2 17 9 33 16 39 12 46 -25 47 -16 1 -32 3 -35 4 -3 1 -16 3 -30 5 -24 3 -75 11 -115 19 -33 6 -75 25 -91 40 -33 34 -3 82 45 71 17 -3 32 -2 36 4 3 6 1 11 -5 11 -6 0 -15 10 -21 23 -9 19 -51 44 -91 53 -5 1 -9 2 -10 4 -10 7 -120 22 -170 22 -16 0 -28 5 -28 10 0 5 -4 6 -10 3 -10 -6 -59 39 -86 80 -31 47 -18 185 21 235 32 40 27 49 -31 47 -29 -1 -54 -5 -54 -8 0 -10 -40 -3 -52 9 -10 10 -10 17 0 32 26 42 6 77 -40 71 -10 -1 -18 2 -18 7 0 5 -6 9 -12 9 -7 0 -26 4 -43 7 -16 4 -43 9 -60 12 -34 7 -57 22 -50 35 3 4 25 11 49 14 43 7 74 20 66 29 -10 9 -77 18 -152 19 -50 1 -81 7 -90 16 -10 11 -10 14 -1 18 10 4 9 10 -2 26 -8 12 -15 34 -15 49 0 21 -7 31 -26 38 -19 8 -25 16 -21 29 3 13 -1 21 -13 24 -21 5 -191 0 -250 -8 -86 -11 -120 -12 -120 -3 0 5 -4 7 -8 4 -5 -3 -37 15 -70 39 l-61 45 -20 -22z"></path> <path d="M4054 3999 c-2 -4 -13 -6 -24 -4 -11 2 -20 -1 -20 -7 0 -6 -11 -8 -25 -6 -14 3 -25 2 -25 -2 0 -4 -6 -7 -12 -8 -23 -2 -43 -7 -55 -15 -7 -5 -17 -5 -23 -2 -5 3 -10 2 -10 -2 0 -5 -8 -9 -17 -10 -26 -2 -46 -7 -60 -16 -7 -5 -17 -6 -22 -2 -5 3 -12 1 -15 -4 -5 -8 -27 -11 -78 -12 -10 0 -18 -4 -18 -9 0 -5 -8 -9 -17 -9 -28 1 -68 -7 -79 -14 -6 -3 -21 -5 -33 -2 -11 2 -21 -1 -21 -7 0 -6 -9 -8 -20 -5 -11 3 -23 1 -26 -4 -3 -5 4 -9 15 -9 41 0 39 -17 -21 -148 -15 -35 -28 -66 -28 -68 0 -7 -75 -186 -106 -252 -13 -29 -24 -56 -24 -60 0 -5 -10 -30 -23 -58 -13 -27 -39 -87 -58 -134 -18 -47 -38 -88 -44 -92 -5 -4 -7 -8 -4 -8 3 0 -5 -30 -17 -67 -21 -63 -21 -68 -6 -89 9 -13 23 -24 30 -24 6 0 12 -4 12 -9 0 -4 10 -7 23 -7 12 1 29 -1 38 -6 9 -4 20 -4 24 0 4 4 21 7 38 7 31 0 31 1 29 45 -2 25 2 68 8 95 6 28 11 56 12 63 1 6 5 12 9 12 4 0 5 9 2 20 -3 12 1 22 10 26 9 3 14 11 11 19 -3 7 1 19 9 26 7 8 12 20 9 28 -3 8 0 11 7 7 7 -5 11 1 11 14 0 12 4 19 9 16 5 -3 12 6 15 19 4 14 10 24 14 22 4 -2 17 7 29 20 12 13 20 23 17 23 -3 0 1 6 8 14 7 8 18 13 23 13 6 -1 9 4 8 10 -2 7 0 12 5 12 21 -4 32 2 26 13 -5 8 -2 9 9 5 10 -3 17 -3 17 2 0 9 60 37 73 33 4 -1 7 3 7 9 0 6 7 9 15 5 8 -3 15 -1 15 5 0 6 7 9 15 6 8 -4 17 -2 21 4 3 5 14 7 24 4 10 -3 21 -2 23 2 3 4 36 7 74 6 80 -3 103 -6 122 -18 10 -6 12 -4 6 6 -8 12 -6 12 8 0 9 -7 17 -10 17 -6 0 4 11 0 25 -9 14 -9 25 -14 25 -10 0 4 7 1 15 -6 8 -7 15 -9 15 -6 0 4 11 -4 23 -18 13 -14 27 -23 30 -19 4 3 7 1 7 -6 0 -7 5 -9 10 -6 6 3 10 1 10 -6 0 -12 29 -38 43 -39 4 0 7 8 7 19 0 10 6 23 13 28 16 12 57 14 57 3 0 -5 11 -7 25 -4 14 2 25 0 25 -6 0 -6 13 -8 30 -5 17 3 30 1 30 -5 0 -6 13 -8 30 -5 17 3 30 1 30 -5 0 -6 11 -8 25 -6 13 3 27 0 31 -6 3 -5 17 -7 30 -4 13 4 24 2 24 -3 0 -5 14 -7 30 -6 17 1 30 -1 30 -6 0 -4 11 -6 25 -3 14 2 25 0 25 -6 0 -6 13 -8 30 -5 17 3 30 1 30 -4 0 -5 13 -7 29 -5 39 7 43 -3 20 -54 -51 -110 -141 -319 -146 -337 -3 -11 -10 -25 -14 -30 -5 -6 0 -16 10 -22 11 -7 22 -31 27 -60 11 -65 11 -67 14 -75 4 -13 7 -28 9 -39 0 -5 5 -8 10 -5 9 6 7 40 -3 74 -7 22 4 35 21 24 5 -4 17 -20 26 -37 8 -16 24 -39 34 -50 11 -11 22 -28 26 -37 3 -10 11 -18 16 -18 5 0 13 -9 16 -20 3 -11 13 -20 20 -20 8 0 20 -8 27 -18 11 -16 34 -30 61 -37 4 -2 8 -3 10 -5 19 -15 136 -14 152 2 4 4 13 4 21 1 8 -3 14 0 14 6 0 6 7 8 17 4 11 -4 14 -3 9 6 -5 8 -3 11 5 10 8 -2 24 3 37 10 23 12 23 13 5 26 -12 9 -15 17 -8 24 9 9 61 22 93 24 6 0 12 4 12 9 0 5 5 6 11 2 7 -4 10 1 7 12 -3 16 -40 45 -155 117 -37 24 -43 32 -43 62 0 19 5 35 11 35 5 0 7 5 4 10 -4 6 -1 17 5 25 7 8 9 15 4 15 -5 0 7 10 26 22 19 12 38 21 43 20 4 -1 7 3 7 9 0 5 4 8 9 5 5 -3 12 1 15 10 4 9 13 14 21 10 8 -3 15 0 15 6 0 6 3 8 7 5 3 -4 12 1 20 11 9 10 11 11 7 2 -4 -8 13 6 39 32 26 25 47 49 47 52 0 6 24 37 48 62 7 8 10 14 6 14 -4 0 0 8 8 18 9 9 21 34 28 55 6 20 15 37 20 37 4 0 6 9 3 20 -3 11 -1 20 3 20 5 0 10 19 11 43 4 68 12 91 27 78 10 -9 15 -7 19 9 3 11 1 20 -4 20 -5 0 -9 6 -9 14 0 7 -11 49 -25 92 -14 43 -25 93 -25 111 0 18 -4 33 -10 33 -5 0 -10 7 -10 15 0 8 -5 15 -11 15 -7 0 -33 13 -59 29 -27 16 -51 27 -54 24 -3 -4 -6 -1 -6 5 0 7 -7 12 -15 12 -20 0 -19 9 3 33 9 11 12 17 5 14 -6 -4 -14 -3 -18 3 -4 6 -10 8 -15 5 -5 -3 -11 -1 -15 4 -3 6 -12 8 -19 5 -8 -3 -17 -1 -20 4 -3 5 -17 7 -31 4 -14 -2 -25 0 -25 5 0 5 -16 10 -35 11 -69 4 -75 6 -84 34 -9 25 -27 34 -55 29 -6 -1 -40 -4 -77 -5 -37 -2 -72 -7 -78 -10 -6 -4 -11 -1 -11 6 0 8 -3 9 -8 3 -7 -11 -33 -14 -149 -18 -66 -2 -78 -6 -121 -38 -60 -45 -101 -46 -157 -4 -22 17 -42 33 -43 38 -2 4 -8 5 -13 1 -5 -3 -9 0 -9 6 0 6 -4 9 -9 5 -5 -3 -17 2 -25 11 -9 8 -16 13 -16 9 0 -3 -13 1 -30 10 -16 8 -32 15 -35 15 -3 0 -15 2 -28 5 -67 16 -186 24 -193 14z m650 -271 c-6 -10 -4 -10 7 -3 24 19 116 8 147 -17 13 -11 14 -11 7 2 -5 8 7 2 27 -15 19 -16 33 -33 31 -37 -2 -5 1 -8 7 -8 7 0 10 -7 6 -15 -3 -8 0 -15 6 -15 16 0 3 -116 -15 -135 -8 -8 -17 -18 -19 -22 -7 -17 -70 -63 -79 -57 -5 3 -9 1 -9 -4 0 -17 -76 -22 -123 -8 -25 8 -49 11 -53 7 -4 -3 -4 -1 -1 5 4 7 0 15 -9 18 -10 4 -13 2 -8 -7 5 -6 -5 2 -22 18 -35 36 -54 76 -54 114 0 32 44 124 68 143 15 11 16 11 7 -2 -5 -9 -2 -7 8 3 9 11 17 16 17 11 0 -4 7 1 16 12 8 10 12 12 8 4 -5 -11 -2 -10 12 3 22 20 28 22 18 5z"></path> <path d="M2372 3433 c-26 -12 -44 -23 -40 -23 4 0 -6 -13 -23 -29 -37 -35 -32 -50 16 -47 19 2 32 -1 29 -6 -3 -5 6 -7 19 -4 14 2 28 1 32 -2 4 -4 15 -8 26 -8 10 -1 20 -3 22 -4 1 -1 16 -3 32 -4 17 -1 36 -5 43 -10 7 -4 16 -5 19 -2 3 3 14 1 23 -4 15 -8 18 -6 15 8 -2 9 -4 36 -4 59 -1 39 -29 88 -53 92 -5 0 -9 1 -10 2 -2 0 -24 2 -51 3 -32 1 -62 -5 -95 -21z"></path> <path d="M3803 3188 c-44 -21 -103 -81 -95 -95 4 -6 19 -9 35 -7 15 1 27 -1 27 -5 0 -5 10 -7 23 -7 12 1 27 0 32 -3 6 -3 21 -7 35 -7 14 -1 25 -3 25 -4 0 -2 14 -4 30 -5 17 -2 30 -4 30 -5 0 -1 14 -3 30 -5 l31 -3 -4 51 c-2 28 -7 56 -13 63 -5 6 -5 15 -1 19 4 5 1 5 -5 1 -7 -4 -13 -2 -13 3 0 6 -7 11 -15 11 -8 0 -15 3 -15 8 0 14 -102 7 -137 -10z"></path> </g> </svg> 